<?xml version="1.0" encoding="UTF-8" standalone="no"?>
<!-- Generator: Adobe Illustrator 13.0.0, SVG Export Plug-In . SVG Version: 6.00 Build 14948)  -->

<svg
   xmlns:dc="http://purl.org/dc/elements/1.1/"
   xmlns:cc="http://creativecommons.org/ns#"
   xmlns:rdf="http://www.w3.org/1999/02/22-rdf-syntax-ns#"
   xmlns:svg="http://www.w3.org/2000/svg"
   xmlns="http://www.w3.org/2000/svg"
   xmlns:sodipodi="http://sodipodi.sourceforge.net/DTD/sodipodi-0.dtd"
   xmlns:inkscape="http://www.inkscape.org/namespaces/inkscape"
   version="1.1"
   id="Ebene_1"
   x="0px"
   y="0px"
   width="270"
   height="270"
   viewBox="0 0 270 270.00001"
   enable-background="new 0 0 270.138 270.124"
   xml:space="preserve"
   sodipodi:version="0.32"
   inkscape:version="0.48.3.1 r9886"
   sodipodi:docname="b1-systems.svg"
   inkscape:output_extension="org.inkscape.output.svg.inkscape"
   inkscape:export-filename="/home/MrsMiaWallace/B1Doku/b1_systems_rand.png"
   inkscape:export-xdpi="300"
   inkscape:export-ydpi="300"><metadata
   id="metadata42"><rdf:RDF><cc:Work
       rdf:about=""><dc:format>image/svg+xml</dc:format><dc:type
         rdf:resource="http://purl.org/dc/dcmitype/StillImage" /><dc:title></dc:title></cc:Work></rdf:RDF></metadata><defs
   id="defs40"><inkscape:perspective
   sodipodi:type="inkscape:persp3d"
   inkscape:vp_x="0 : 135.062 : 1"
   inkscape:vp_y="0 : 1000 : 0"
   inkscape:vp_z="270.138 : 135.062 : 1"
   inkscape:persp3d-origin="135.069 : 90.041331 : 1"
   id="perspective44" />
	
	
	
	
	
	
	
	
	
	
	
	
	
	
	
	
	
<inkscape:perspective
   sodipodi:type="inkscape:persp3d"
   inkscape:vp_x="0 : 135.062 : 1"
   inkscape:vp_y="0 : 1000 : 0"
   inkscape:vp_z="270.138 : 135.062 : 1"
   inkscape:persp3d-origin="135.069 : 90.041331 : 1"
   id="perspective44-6" /><inkscape:perspective
   sodipodi:type="inkscape:persp3d"
   inkscape:vp_x="0 : 135.062 : 1"
   inkscape:vp_y="0 : 1000 : 0"
   inkscape:vp_z="270.138 : 135.062 : 1"
   inkscape:persp3d-origin="135.069 : 90.041331 : 1"
   id="perspective44-9" /><inkscape:perspective
   sodipodi:type="inkscape:persp3d"
   inkscape:vp_x="0 : 135.062 : 1"
   inkscape:vp_y="0 : 1000 : 0"
   inkscape:vp_z="270.138 : 135.062 : 1"
   inkscape:persp3d-origin="135.069 : 90.041331 : 1"
   id="perspective44-2" /><inkscape:perspective
   id="perspective6500"
   inkscape:persp3d-origin="372.04724 : 350.78739 : 1"
   inkscape:vp_z="744.09448 : 526.18109 : 1"
   inkscape:vp_y="0 : 1000 : 0"
   inkscape:vp_x="0 : 526.18109 : 1"
   sodipodi:type="inkscape:persp3d" /></defs><sodipodi:namedview
   inkscape:window-height="1030"
   inkscape:window-width="1920"
   inkscape:pageshadow="2"
   inkscape:pageopacity="0"
   guidetolerance="10.0"
   gridtolerance="10.0"
   objecttolerance="10.0"
   borderopacity="1.0"
   bordercolor="#666666"
   pagecolor="#ffffff"
   id="base"
   showgrid="false"
   inkscape:zoom="1.3873873"
   inkscape:cx="-157.47044"
   inkscape:cy="110.82501"
   inkscape:window-x="0"
   inkscape:window-y="0"
   inkscape:current-layer="Ebene_1"
   units="px"
   showguides="true"
   inkscape:guide-bbox="true"
   inkscape:window-maximized="1"
   fit-margin-top="10"
   fit-margin-left="10"
   fit-margin-right="10"
   fit-margin-bottom="10"><sodipodi:guide
     orientation="1,0"
     position="9.0598405,225.16025"
     id="guide3014" /><sodipodi:guide
     orientation="0,1"
     position="75.31667,273.06904"
     id="guide3016" /><sodipodi:guide
     orientation="0,1"
     position="144.12184,8.5513877"
     id="guide3018" /><sodipodi:guide
     orientation="1,0"
     position="273.57749,162.4711"
     id="guide3020" /></sodipodi:namedview>
<rect
   style="fill:#ffffff;fill-opacity:1;stroke:#ffffff;stroke-opacity:1"
   id="rect3005"
   width="270"
   height="270"
   x="0.49999499"
   y="-0.49998999" /><path
   inkscape:connector-curvature="0"
   style="fill:#224779"
   d="m 4.7207738,84.345473 0,53.164557 c 0,0 0,53.11959 0,79.68639 53.1423092,0 100.9824262,0.0303 100.9824262,0.0302 26.57067,0 26.55207,-26.58227 26.55207,-26.58227 0,0 0,-53.144 0,-79.7166 0,0 0.0224,-26.582287 -26.55207,-26.582287 -5.31259,0 -79.724343,0 -100.9824262,0 z M 31.303045,110.92775 c 10e-7,0 45.167387,0 58.45079,0 15.941635,0 15.949365,15.94937 15.949365,15.94937 l 0,47.81788 c 0,-1e-5 -0.008,15.94936 -15.949365,15.94936 l -58.45079,0 0,-79.71661 z"
   id="path5" /><path
   inkscape:connector-curvature="0"
   style="fill:#224779"
   d="m 4.7207738,4.6288649 0,79.7166081 c 0,26.566817 0,21.265827 0,21.265827 0,0 58.4507872,0 79.7166072,0 26.570679,0 26.582279,-21.265827 26.582279,-21.265827 0,-5.31645 0,-26.56366 0,-53.13433 0,0 -0.0116,-26.5822781 -26.582279,-26.5822781 -5.320321,0 -58.458524,0 -79.7166072,0 z m 26.5822712,26.5822781 42.501427,0 c 10.632911,0 10.632909,10.6329 10.632909,10.6329 0.0039,14.61252 0.0039,17.25214 0,31.86852 2e-6,0 0,10.63291 -10.632909,10.63291 -3.073875,0 -22.545632,0 -26.582271,0 -15.937763,-0.004 -15.919156,0 -15.919156,0 l 0,-53.13433 z"
   id="path7" /><polyline
   style="fill:#f7b234;fill-opacity:1;stroke:#1a171b;stroke-width:1.45469999;stroke-linejoin:round"
   id="polyline13"
   points="214.426,33.712 126.457,55.704    214.426,55.704  "
   transform="matrix(0.96662804,0,0,0.96662804,4.7207775,3.9341049)" /><polyline
   style="fill:#1a171b;stroke:#1a171b;stroke-width:1.45469999;stroke-linecap:round;stroke-linejoin:round"
   id="polyline15"
   points="   214.426,33.712 126.457,55.704 214.422,0.728  "
   transform="matrix(0.96662804,0,0,0.96662804,4.7207775,3.9341049)" /><path
   inkscape:connector-curvature="0"
   style="fill:#1a171b;stroke:#1a171b;stroke-width:1.4061538;stroke-linecap:round;stroke-linejoin:round"
   id="path17"
   d="m 211.99097,217.21769 0,-212.5798751 21.26195,0 c 0,0 31.89099,0 31.88712,31.8832481 0,21.25809 0,180.697597 0,180.697597 l -53.14907,0 0,-9.7e-4 z" /><polygon
   style="fill:#ffffff;stroke:#1a171b;stroke-width:0.9698"
   id="polygon19"
   points="236.422,83.196 214.426,55.704 214.426,220.647 214.426,220.647 269.41,220.647 236.422,132.677 "
   transform="matrix(0.96662804,0,0,0.96662804,4.7207775,3.9341049)" /><path
   inkscape:connector-curvature="0"
   style="fill:#1a171b"
   id="path21"
   d="m 6.174586,259.53087 c 1.8423931,1.17058 4.474521,2.06955 7.306741,2.06955 4.195167,0 6.649435,-2.16718 6.649435,-5.42182 0,-2.92212 -1.699332,-4.66688 -5.992128,-6.26762 -5.1801588,-1.88782 -8.390331,-4.62145 -8.390331,-9.04667 0,-4.95397 4.0965702,-8.63199 10.278157,-8.63199 3.209205,0 5.611275,0.74721 6.981954,1.55531 l -1.132888,3.35323 c -0.982094,-0.61961 -3.103843,-1.51761 -5.984394,-1.51761 -4.342094,0 -5.9882618,2.5983 -5.9882618,4.76548 0,2.96755 1.9371228,4.43296 6.3091818,6.13229 5.380252,2.11498 8.065545,4.65915 8.065545,9.33376 0,4.89307 -3.579424,9.1907 -11.074659,9.1907 -3.066144,0 -6.4193759,-0.93666 -8.117742,-2.07632 l 1.08939,-3.43829 z" /><path
   inkscape:connector-curvature="0"
   style="fill:#1a171b"
   id="path23"
   d="m 51.160489,264.52253 0,-13.47962 -10.085797,-18.29054 4.712312,0 4.474521,8.76732 c 1.186053,2.4011 2.171047,4.33436 3.160874,6.54697 l 0.09473,0 c 0.853533,-2.06955 1.982554,-4.14587 3.213072,-6.54697 l 4.579883,-8.76732 4.603083,0 -10.610676,18.2451 0,13.52506 -4.142001,0 z" /><path
   inkscape:connector-curvature="0"
   style="fill:#1a171b"
   id="path25"
   d="m 82.625198,259.53087 c 1.838527,1.17058 4.486121,2.06955 7.309642,2.06955 4.206765,0 6.641699,-2.16718 6.641699,-5.42182 0,-2.92212 -1.69546,-4.66688 -5.977626,-6.26762 -5.191759,-1.88782 -8.400964,-4.62145 -8.400964,-9.04667 0,-4.95397 4.100436,-8.63199 10.289755,-8.63199 3.194705,0 5.615145,0.74721 6.966485,1.55531 l -1.12902,3.35323 c -0.98596,-0.61961 -3.10384,-1.51761 -5.977626,-1.51761 -4.345959,0 -5.99986,2.5983 -5.99986,4.76548 0,2.96755 1.937123,4.43296 6.320781,6.13229 5.376385,2.11498 8.053946,4.65915 8.053946,9.33376 0,4.89307 -3.583291,9.1907 -11.066926,9.1907 -3.066144,0 -6.41551,-0.93666 -8.107109,-2.07632 l 1.076823,-3.43829 z" /><path
   inkscape:connector-curvature="0"
   style="fill:#1a171b"
   id="path27"
   d="m 126.58358,236.24093 -9.67015,0 0,-3.48856 23.53546,0 0,3.48856 -9.71944,0 0,28.2816 -4.14587,0 0,-28.2816 0,0 z" /><path
   inkscape:connector-curvature="0"
   style="fill:#1a171b"
   id="path29"
   d="m 174.54186,249.62293 -12.30227,0 0,11.46324 13.75898,0 0,3.43636 -17.91258,0 0,-31.77016 17.21081,0 0,3.43636 -13.05721,0 0,10.04423 12.30227,0 0,3.38997 z" /><path
   inkscape:connector-curvature="0"
   style="fill:#1a171b"
   id="path31"
   d="m 222.26912,250.56636 c -0.24552,-4.42523 -0.52488,-9.80258 -0.52488,-13.71452 l -0.0909,0 c -1.13289,3.67802 -2.4127,7.67986 -4.00667,12.06738 l -5.60741,15.41289 -3.11931,0 -5.18016,-15.1258 c -1.50697,-4.53155 -2.73362,-8.58656 -3.62485,-12.35447 l -0.0947,0 c -0.0986,3.95737 -0.33639,9.2429 -0.61961,14.04607 l -0.84967,13.62366 -3.90808,0 2.21262,-31.77017 5.23332,0 5.41795,15.36069 c 1.31751,3.91968 2.35277,7.4005 3.20147,10.7083 l 0.0986,0 c 0.83806,-3.2092 1.98255,-6.691 3.39866,-10.7083 l 5.65284,-15.36069 5.23719,0 1.98256,31.77017 -4.05887,0 -0.75011,-13.95521 z" /><path
   inkscape:connector-curvature="0"
   style="fill:#1a171b"
   id="path33"
   d="m 247.0351,259.53087 c 1.83853,1.17058 4.47839,2.06955 7.30288,2.06955 4.19903,0 6.6533,-2.16718 6.6533,-5.42182 0,-2.92212 -1.69934,-4.66688 -5.9844,-6.26762 -5.18789,-1.88782 -8.40096,-4.62145 -8.40096,-9.04667 0,-4.95397 4.11203,-8.63199 10.28975,-8.63199 3.19857,0 5.60355,0.74721 6.97422,1.55531 l -1.12902,3.35323 c -0.99272,-0.61961 -3.11931,-1.51761 -5.99599,-1.51761 -4.33049,0 -5.9815,2.5983 -5.9815,4.76548 0,2.96755 1.92553,4.43296 6.31692,6.13229 5.37638,2.11498 8.06168,4.65915 8.06168,9.33376 0,4.89307 -3.58716,9.1907 -11.08239,9.1907 -3.06228,0 -6.40778,-0.93666 -8.10711,-2.07632 l 1.08262,-3.43829 z" /><path
   inkscape:connector-curvature="0"
   style="fill:#ffffff"
   id="path35"
   d="m 238.56164,25.895893 c 0,5.86743 -4.75388,10.62517 -10.62518,10.62517 -5.8713,0 -10.62904,-4.75774 -10.62904,-10.62517 0,-5.8713 4.75774,-10.63291 10.62904,-10.63291 5.8713,0 10.62518,4.76161 10.62518,10.63291 z" /><path
   inkscape:connector-curvature="0"
   style="fill:#1a171b"
   id="path37"
   d="m 233.25292,25.895893 c 0,2.92985 -2.37501,5.31259 -5.31646,5.31259 -2.92985,0 -5.30872,-2.38274 -5.30872,-5.31259 0,-2.93758 2.37887,-5.32032 5.30872,-5.32032 2.94145,0 5.31646,2.38274 5.31646,5.32032 z" />
</svg>