<?xml version="1.0" encoding="UTF-8" standalone="no"?>
<!-- Generator: Adobe Illustrator 13.0.0, SVG Export Plug-In . SVG Version: 6.00 Build 14948)  -->
<svg
   xmlns:dc="http://purl.org/dc/elements/1.1/"
   xmlns:cc="http://creativecommons.org/ns#"
   xmlns:rdf="http://www.w3.org/1999/02/22-rdf-syntax-ns#"
   xmlns:svg="http://www.w3.org/2000/svg"
   xmlns="http://www.w3.org/2000/svg"
   xmlns:sodipodi="http://sodipodi.sourceforge.net/DTD/sodipodi-0.dtd"
   xmlns:inkscape="http://www.inkscape.org/namespaces/inkscape"
   version="1.1"
   id="Ebene_1"
   x="0px"
   y="0px"
   width="270.138px"
   height="270.124px"
   viewBox="0 0 270.138 270.124"
   enable-background="new 0 0 270.138 270.124"
   xml:space="preserve"
   sodipodi:version="0.32"
   inkscape:version="0.46"
   sodipodi:docname="b1-systems-ohne-systems.svg"
   inkscape:output_extension="org.inkscape.output.svg.inkscape"
   inkscape:export-filename="/home/MrsMiaWallace/Desktop/Arbeit/SVN/documentation/common/artwork/b1-systems-ohne-systems.png"
   inkscape:export-xdpi="90"
   inkscape:export-ydpi="90"><metadata
   id="metadata42"><rdf:RDF><cc:Work
       rdf:about=""><dc:format>image/svg+xml</dc:format><dc:type
         rdf:resource="http://purl.org/dc/dcmitype/StillImage" /></cc:Work></rdf:RDF></metadata><defs
   id="defs40"><inkscape:perspective
   sodipodi:type="inkscape:persp3d"
   inkscape:vp_x="0 : 135.062 : 1"
   inkscape:vp_y="0 : 1000 : 0"
   inkscape:vp_z="270.138 : 135.062 : 1"
   inkscape:persp3d-origin="135.069 : 90.041331 : 1"
   id="perspective44" />
	
	
	
	
	
	
	
	
	
	
	
	
	
	
	
	
	
</defs><sodipodi:namedview
   inkscape:window-height="949"
   inkscape:window-width="1680"
   inkscape:pageshadow="2"
   inkscape:pageopacity="0"
   guidetolerance="10.0"
   gridtolerance="10.0"
   objecttolerance="10.0"
   borderopacity="1.0"
   bordercolor="#666666"
   pagecolor="#ffffff"
   id="base"
   showgrid="false"
   inkscape:zoom="1.9620619"
   inkscape:cx="30.555492"
   inkscape:cy="135.062"
   inkscape:window-x="-5"
   inkscape:window-y="36"
   inkscape:current-layer="Ebene_1" />
<path
   style="fill:#224779"
   d="M -3.7843633e-06,101.1875 L -3.7843633e-06,156.1875 C -3.7843633e-06,156.1875 -3.7843632e-06,211.141 -3.7843633e-06,238.625 C 54.976995,238.625 104.46875,238.65626 104.46875,238.65625 C 131.95675,238.65625 131.9375,211.15625 131.9375,211.15625 C 131.9375,211.15625 131.9375,156.1775 131.9375,128.6875 C 131.9375,128.6875 131.96075,101.1875 104.46875,101.1875 C 98.972746,101.1875 21.991995,101.1875 -3.7843633e-06,101.1875 z M 27.499996,128.6875 C 27.499997,128.6875 74.226746,128.6875 87.968746,128.6875 C 104.46075,128.6875 104.46875,145.1875 104.46875,145.1875 L 104.46875,194.65625 C 104.46875,194.65624 104.46075,211.15625 87.968746,211.15625 L 27.499996,211.15625 L 27.499996,128.6875 z"
   id="path5"
   inkscape:export-filename="/home/MrsMiaWallace/Desktop/Arbeit/SVN/documentation/common/artwork/path37.png"
   inkscape:export-xdpi="90"
   inkscape:export-ydpi="90" /><path
   style="fill:#224779"
   d="M -3.7843633e-06,18.71875 L -3.7843633e-06,101.1875 C -3.7843633e-06,128.6715 -3.7843632e-06,123.1875 -3.7843633e-06,123.1875 C -3.7843633e-06,123.1875 60.468743,123.1875 82.468746,123.1875 C 109.95675,123.1875 109.96875,101.1875 109.96875,101.1875 C 109.96875,95.6875 109.96875,73.706749 109.96875,46.21875 C 109.96875,46.21875 109.95675,18.71875 82.468746,18.71875 C 76.964746,18.71875 21.991995,18.71875 -3.7843633e-06,18.71875 z M 27.499996,46.21875 L 71.468746,46.21875 C 82.468748,46.21875 82.468746,57.21875 82.468746,57.21875 C 82.472748,72.335749 82.472746,75.0665 82.468746,90.1875 C 82.468748,90.187499 82.468746,101.1875 71.468746,101.1875 C 68.288748,101.1875 48.144746,101.1875 43.968746,101.1875 C 27.480746,101.1835 27.499996,101.1875 27.499996,101.1875 L 27.499996,46.21875 z"
   id="path7"
   inkscape:export-filename="/home/MrsMiaWallace/Desktop/Arbeit/SVN/documentation/common/artwork/path37.png"
   inkscape:export-xdpi="90"
   inkscape:export-ydpi="90" /><polyline
   style="fill:#f7c334;fill-opacity:1;stroke:#1a171b;stroke-width:1.45469999;stroke-linejoin:round"
   id="polyline13"
   points="214.426,33.712 126.457,55.704    214.426,55.704  "
   transform="translate(0,18)"
   inkscape:export-filename="/home/MrsMiaWallace/Desktop/Arbeit/SVN/documentation/common/artwork/path37.png"
   inkscape:export-xdpi="90"
   inkscape:export-ydpi="90" /><polyline
   style="fill:#1a171b;stroke:#1a171b;stroke-width:1.45469999;stroke-linecap:round;stroke-linejoin:round"
   id="polyline15"
   points="   214.426,33.712 126.457,55.704 214.422,0.728  "
   transform="translate(0,18)"
   inkscape:export-filename="/home/MrsMiaWallace/Desktop/Arbeit/SVN/documentation/common/artwork/path37.png"
   inkscape:export-xdpi="90"
   inkscape:export-ydpi="90" /><path
   style="fill:#1a171b;stroke:#1a171b;stroke-width:1.45469999;stroke-linecap:round;stroke-linejoin:round"
   id="path17"
   d="M 214.426,238.647 L 214.426,18.728 L 236.422,18.728 C 236.422,18.728 269.414,18.728 269.41,51.712 C 269.41,73.704 269.41,238.648 269.41,238.648 L 214.426,238.648 L 214.426,238.647 z"
   inkscape:export-filename="/home/MrsMiaWallace/Desktop/Arbeit/SVN/documentation/common/artwork/path37.png"
   inkscape:export-xdpi="90"
   inkscape:export-ydpi="90" /><polygon
   style="fill:#ffffff;stroke:#1a171b;stroke-width:0.9698"
   id="polygon19"
   points="214.426,220.647 269.41,220.647 236.422,132.677 236.422,83.196 214.426,55.704 214.426,220.647 "
   transform="translate(0,18)"
   inkscape:export-filename="/home/MrsMiaWallace/Desktop/Arbeit/SVN/documentation/common/artwork/path37.png"
   inkscape:export-xdpi="90"
   inkscape:export-ydpi="90" /><path
   style="fill:#ffffff"
   id="path35"
   d="M 241.914,40.72 C 241.914,46.79 236.996,51.712 230.922,51.712 C 224.848,51.712 219.926,46.79 219.926,40.72 C 219.926,34.646 224.848,29.72 230.922,29.72 C 236.996,29.72 241.914,34.646 241.914,40.72 z"
   inkscape:export-filename="/home/MrsMiaWallace/Desktop/Arbeit/SVN/documentation/common/artwork/path37.png"
   inkscape:export-xdpi="90"
   inkscape:export-ydpi="90" /><path
   style="fill:#1a171b"
   id="path37"
   d="M 236.422,40.72 C 236.422,43.751 233.965,46.216 230.922,46.216 C 227.891,46.216 225.43,43.751 225.43,40.72 C 225.43,37.681 227.891,35.216 230.922,35.216 C 233.965,35.216 236.422,37.681 236.422,40.72 z"
   inkscape:export-xdpi="90"
   inkscape:export-ydpi="90" />
</svg>