<?xml version="1.0" encoding="UTF-8" standalone="no"?>
<!-- Created with Inkscape (http://www.inkscape.org/) -->

<svg
   xmlns:dc="http://purl.org/dc/elements/1.1/"
   xmlns:cc="http://creativecommons.org/ns#"
   xmlns:rdf="http://www.w3.org/1999/02/22-rdf-syntax-ns#"
   xmlns:svg="http://www.w3.org/2000/svg"
   xmlns="http://www.w3.org/2000/svg"
   xmlns:xlink="http://www.w3.org/1999/xlink"
   xmlns:sodipodi="http://sodipodi.sourceforge.net/DTD/sodipodi-0.dtd"
   xmlns:inkscape="http://www.inkscape.org/namespaces/inkscape"
   width="16"
   height="16"
   id="svg2400"
   sodipodi:version="0.32"
   inkscape:version="0.48.0 r9654"
   version="1.0"
   sodipodi:docname="bc_danger_icon.svg"
   inkscape:output_extension="org.inkscape.output.svg.inkscape">
  <defs
     id="defs2402"><linearGradient
   id="linearGradient4016">
  <stop
     style="stop-color:#ffffff;stop-opacity:0.63054186;"
     offset="0"
     id="stop4022" />
  <stop
     id="stop4030"
     offset="1"
     style="stop-color:#ffffff;stop-opacity:0.26600984;" />
</linearGradient>
<linearGradient
   id="linearGradient3974">
  <stop
     style="stop-color:#ff9b26;stop-opacity:1;"
     offset="0"
     id="stop3976" />
  <stop
     id="stop4046"
     offset="0.95683455"
     style="stop-color:#ff9b26;stop-opacity:1;" />
  <stop
     id="stop4044"
     offset="1"
     style="stop-color:#00000a;stop-opacity:0.04433497;" />
</linearGradient>
<linearGradient
   id="linearGradient3966">
  <stop
     style="stop-color:#ffffff;stop-opacity:0.57635468;"
     offset="0"
     id="stop3970" />
  <stop
     id="stop3972"
     offset="1"
     style="stop-color:#000000;stop-opacity:0;" />
</linearGradient>
<linearGradient
   id="linearGradient3954">
  <stop
     style="stop-color:#ff9b26;stop-opacity:1;"
     offset="0"
     id="stop3956" />
  <stop
     id="stop3962"
     offset="0.5"
     style="stop-color:#ff9b26;stop-opacity:0.49803922;" />
  <stop
     style="stop-color:#ff9b26;stop-opacity:0;"
     offset="1"
     id="stop3958" />
</linearGradient>
<inkscape:perspective
   sodipodi:type="inkscape:persp3d"
   inkscape:vp_x="0 : 526.18109 : 1"
   inkscape:vp_y="0 : 1000 : 0"
   inkscape:vp_z="744.09448 : 526.18109 : 1"
   inkscape:persp3d-origin="372.04724 : 350.78739 : 1"
   id="perspective2408" />
<radialGradient
   inkscape:collect="always"
   xlink:href="#linearGradient4016"
   id="radialGradient4032"
   cx="10.354064"
   cy="9.1814699"
   fx="10.354064"
   fy="9.1814699"
   r="8.2706242"
   gradientUnits="userSpaceOnUse" />
<radialGradient
   inkscape:collect="always"
   xlink:href="#linearGradient3974"
   id="radialGradient4038"
   cx="10.354064"
   cy="9.1814699"
   fx="10.354064"
   fy="9.1814699"
   r="8.2706242"
   gradientUnits="userSpaceOnUse" />
<inkscape:perspective
   sodipodi:type="inkscape:persp3d"
   inkscape:vp_x="0 : 526.18109 : 1"
   inkscape:vp_y="0 : 1000 : 0"
   inkscape:vp_z="744.09448 : 526.18109 : 1"
   inkscape:persp3d-origin="372.04724 : 350.78739 : 1"
   id="perspective6500" />
<inkscape:perspective
   id="perspective44-2"
   inkscape:persp3d-origin="135.069 : 90.041331 : 1"
   inkscape:vp_z="270.138 : 135.062 : 1"
   inkscape:vp_y="0 : 1000 : 0"
   inkscape:vp_x="0 : 135.062 : 1"
   sodipodi:type="inkscape:persp3d" />
<inkscape:perspective
   id="perspective44-9"
   inkscape:persp3d-origin="135.069 : 90.041331 : 1"
   inkscape:vp_z="270.138 : 135.062 : 1"
   inkscape:vp_y="0 : 1000 : 0"
   inkscape:vp_x="0 : 135.062 : 1"
   sodipodi:type="inkscape:persp3d" />
<inkscape:perspective
   id="perspective44-6"
   inkscape:persp3d-origin="135.069 : 90.041331 : 1"
   inkscape:vp_z="270.138 : 135.062 : 1"
   inkscape:vp_y="0 : 1000 : 0"
   inkscape:vp_x="0 : 135.062 : 1"
   sodipodi:type="inkscape:persp3d" />
<inkscape:perspective
   id="perspective44"
   inkscape:persp3d-origin="135.069 : 90.041331 : 1"
   inkscape:vp_z="270.138 : 135.062 : 1"
   inkscape:vp_y="0 : 1000 : 0"
   inkscape:vp_x="0 : 135.062 : 1"
   sodipodi:type="inkscape:persp3d" />

	
	
	
	
	
	
	
	
	
	
	
	
	
	
	
	
	
<inkscape:perspective
   id="perspective44-0"
   inkscape:persp3d-origin="135.069 : 90.041331 : 1"
   inkscape:vp_z="270.138 : 135.062 : 1"
   inkscape:vp_y="0 : 1000 : 0"
   inkscape:vp_x="0 : 135.062 : 1"
   sodipodi:type="inkscape:persp3d" />
</defs>
  <sodipodi:namedview
     id="base"
     pagecolor="#ffffff"
     bordercolor="#666666"
     borderopacity="1.0"
     gridtolerance="10000"
     guidetolerance="10"
     objecttolerance="10"
     inkscape:pageopacity="0.0"
     inkscape:pageshadow="2"
     inkscape:zoom="15.839192"
     inkscape:cx="-4.6907765"
     inkscape:cy="1.5724061"
     inkscape:document-units="px"
     inkscape:current-layer="layer4"
     showgrid="false"
     showguides="true"
     inkscape:guide-bbox="true"
     inkscape:window-width="1672"
     inkscape:window-height="951"
     inkscape:window-x="0"
     inkscape:window-y="35"
     units="mm"
     inkscape:window-maximized="0" />
  <metadata
     id="metadata2405">
    <rdf:RDF>
      <cc:Work
         rdf:about="">
        <dc:format>image/svg+xml</dc:format>
        <dc:type
           rdf:resource="http://purl.org/dc/dcmitype/StillImage" />
        <dc:title />
      </cc:Work>
    </rdf:RDF>
  </metadata>
  <g
     inkscape:groupmode="layer"
     id="layer4"
     inkscape:label="kreis"
     style="display:inline"
     transform="translate(0,-1.0554199e-6)">
    <path
       sodipodi:type="arc"
       style="fill:#224779;fill-opacity:1;stroke:none"
       id="path3944"
       sodipodi:cx="10.354064"
       sodipodi:cy="9.1814699"
       sodipodi:rx="8.2706242"
       sodipodi:ry="8.2706242"
       d="m 18.624688,9.1814699 c 0,4.5677401 -3.702884,8.2706241 -8.270624,8.2706241 -4.5677396,0 -8.2706242,-3.702884 -8.2706242,-8.2706241 0,-4.5677396 3.7028846,-8.27062414 8.2706242,-8.27062414 4.56774,0 8.270624,3.70288454 8.270624,8.27062414 z"
       transform="matrix(0.6040787,0.7554584,-0.7554584,0.6040787,8.6815499,-5.3683949)" />
    <path
       style="fill:#f7c334;fill-opacity:1"
       d="M 8.2414646,13.39115 C 8.5763698,12.300693 8.8408027,11.402908 8.8290927,11.396072 8.8173727,11.389272 8.3546842,11.341553 7.8008756,11.290118 7.247067,11.238677 6.7908043,11.184849 6.7869584,11.170494 6.7830686,11.156165 7.1637423,10.250535 7.6328021,9.1580444 8.1018633,8.0655528 8.4829432,7.1616342 8.4796492,7.1493378 8.4763391,7.1370338 7.8652402,7.1728848 7.1216215,7.2289928 6.3780009,7.2850988 5.7494929,7.3278207 5.7249332,7.3239278 5.6895462,7.3183179 5.917417,6.6953147 6.8230226,4.3216651 7.4515275,2.6743126 7.9751267,1.299563 7.986575,1.266668 8.003642,1.217709 8.1377959,1.199788 8.7276201,1.167778 9.4415875,1.129038 9.4476129,1.129388 9.4203377,1.208578 9.4052397,1.252528 8.9416015,2.3693285 8.3901058,3.690384 7.8386096,5.01144 7.3879938,6.0971253 7.388735,6.1030159 c 7.395e-4,0.0059 0.6038737,0.0097 1.3402938,0.0085 0.7364171,-0.0012 1.3410602,0.0057 1.3436502,0.01534 0.0026,0.00967 -0.3964255,0.9398114 -0.886698,2.0670253 -0.4902727,1.1272133 -0.8881569,2.0652888 -0.884187,2.0846108 0.00396,0.01933 0.4499246,0.0291 0.9910117,0.02172 0.5410873,-0.0074 0.9846563,-0.0076 0.9857103,-5.71e-4 0.0025,0.01677 -2.6225105,5.067081 -2.6358127,5.071093 -0.00555,0.0016 0.263855,-0.889126 0.5987617,-1.979584 z"
       id="path6224"
       inkscape:connector-curvature="0" />
  </g>
  <g
     inkscape:groupmode="layer"
     id="layer5"
     inkscape:label="schatten"
     style="display:none"
     sodipodi:insensitive="true"
     transform="translate(0,-1.0554199e-6)">
    <path
       sodipodi:type="arc"
       style="fill:url(#radialGradient4038);fill-opacity:1;stroke:none"
       id="path3987"
       sodipodi:cx="10.354064"
       sodipodi:cy="9.1814699"
       sodipodi:rx="8.2706242"
       sodipodi:ry="8.2706242"
       d="m 18.624688,9.1814699 c 0,4.5677401 -3.702884,8.2706241 -8.270624,8.2706241 -4.5677396,0 -8.2706242,-3.702884 -8.2706242,-8.2706241 0,-4.5677396 3.7028846,-8.27062414 8.2706242,-8.27062414 4.56774,0 8.270624,3.70288454 8.270624,8.27062414 z"
       transform="matrix(-0.1582335,-0.9542487,0.9542487,-0.1582335,0.8769535,19.333169)" />
  </g>
  <g
     inkscape:groupmode="layer"
     id="layer7"
     inkscape:label="schatten2"
     sodipodi:insensitive="true"
     transform="translate(0,-1.0554199e-6)"
     style="display:inline">
    <path
       sodipodi:type="arc"
       style="opacity:0.73000004;fill:url(#radialGradient4032);fill-opacity:1;stroke:none"
       id="path4010"
       sodipodi:cx="10.354064"
       sodipodi:cy="9.1814699"
       sodipodi:rx="8.2706242"
       sodipodi:ry="8.2706242"
       d="m 18.624688,9.1814699 c 0,4.5677401 -3.702884,8.2706241 -8.270624,8.2706241 -4.5677396,0 -8.2706242,-3.702884 -8.2706242,-8.2706241 0,-4.5677396 3.7028846,-8.27062414 8.2706242,-8.27062414 4.56774,0 8.270624,3.70288454 8.270624,8.27062414 z"
       transform="matrix(0.352182,0.3917814,-0.4981633,0.3132757,8.705617,-2.8264696)" />
  </g>
  <g
     inkscape:groupmode="layer"
     id="layer3"
     inkscape:label="fig"
     style="display:inline"
     transform="translate(0,-1.0554199e-6)">
    <path
       style="fill:#224779;fill-opacity:1;stroke:#224779;stroke-width:0.04464286;stroke-miterlimit:4;stroke-opacity:1;stroke-dasharray:none"
       d=""
       id="path3503"
       inkscape:connector-curvature="0" />
  </g>
</svg>
